<svg width="100" height="100">
    <path d="M 10 0 l 40 0 q 50 0 50 50 q 0 50 -50 50 l -40 0 q -10 0 -10 -10 l 0 -80 q 0 -10 10 -10 z" fill="rgb(57, 57, 57)"/>
    <path d="M 20 10 l 30 0 q 40 0 40 40 q 0 40 -40 40 l -30 0 q -10 0 -10 -10 l 0 -60 q 0 -10 10 -10 z" fill="rgb(53, 53, 233)"/>
        
    <!-- <path d="M 10 0 l 40 0 q 50 0 50 50 q 0 50 -50 50 l -40 0 q -10 0 -10 -10 l 0 -80 q 0 -10 10 -10 Z M 0 5 l 40 0 q 45 0 45 45 q 0 45 -45 45 l -40 0 q -5 0 -5 -5 l 0 -75 q 0 -10 10 -10 Z"/> -->

</svg>
