<svg xmlns="http://www.w3.org/2000/svg" id="next-arrow" height="75" width="100">
    <path d="M 83.2 35.3 Q 83.2 37.6 81.5 39.2 L 56.6 64.1 Q 55 65.7 52.9 65.7 Q 50.7 65.7 49.2 64.3 Q 47.8 62.9 47.8 60.7 Q 47.8 59.6 48.2 58.7 Q 48.7 57.7 49.4 57 L 56.8 49.5 L 71.1 36.5 L 73 39.7 L 58.5 40.6 L 15.1 40.6 Q 12.7 40.6 11.2 39.1 Q 9.8 37.6 9.8 35.3 Q 9.8 33 11.2 31.6 Q 12.7 30.1 15.1 30.1 L 58.5 30.1 L 73 31 L 71.1 34.1 L 56.8 21.2 L 49.4 13.6 Q 48.7 13 48.2 12 Q 47.8 11.1 47.8 10 Q 47.8 7.8 49.2 6.4 Q 50.7 5 52.9 5 Q 55 5 56.6 6.6 L 81.5 31.5 Q 83.2 33.1 83.2 35.3 Z" />
</svg>