<svg xmlns="http://www.w3.org/2000/svg" width="290" height="500">
    <rect x="125" y="389.6" width="49.1" height="100.9"
        style="fill: rgb(216, 216, 216); stroke: rgb(0, 0, 0)"></rect>
    <path style="fill: rgb(216, 216, 216); stroke: rgb(0, 0, 0)"
        d="M 150.8 8 L 89 84.3 C 120.1 132.5 200 113.9 211.9 84.8 L 150.8 8 Z"></path>
    <path style="fill: rgb(216, 216, 216); stroke: rgb(0, 0, 0)"
        d="M 200.4 99.1 C 158.2 117.4 147 120.5 105.5 101.6 L 54.5 138.5 C 115 185 200 180.8 246.4 138.1 L 200.4 99.1 Z">
    </path>
    <path style="fill: rgb(216, 216, 216); stroke: rgb(0, 0, 0)"
        d="M 217.1 157.6 C 171 175.9 127.7 173.3 85.6 154.8 L 42.8 193.6 C 130.8 259.3 170.6 260.2 255.7 195.6 L 217.1 157.6 Z">
    </path>
    <path style="fill: rgb(216, 216, 216); stroke: rgb(0, 0, 0)"
        d="M 223.4 219.6 C 171.9 238.8 158.3 263.6 75.6 216.8 L 32.7 260.2 C 113.8 321.5 184 325.6 269.1 261 L 223.4 219.6 Z">
    </path>
    <path style="fill: rgb(216, 216, 216); stroke: rgb(0, 0, 0)"
        d="M 235.5 282.7 C 189.6 301.7 153.1 329 65.8 281.9 L 9.6 335.2 C 113 410.9 190.5 414.1 290.3 337.7 L 235.5 282.7 Z">
    </path>
</svg>